<svg width="73" height="16" viewBox="0 0 73 16" fill="none" xmlns="http://www.w3.org/2000/svg">
<path d="M8.1176 7.12C9.97557 7.9 10.993 9.46 10.993 11.34C10.993 14.34 8.33878 16 5.50758 16C5.50758 16 5.50758 16 5.48546 16V13.12C5.50758 13.12 5.50758 13.12 5.50758 13.12C6.67987 13.12 7.71946 12.4 7.71946 11.34C7.71946 10.16 6.50292 9.44 5.50758 9.4C5.35275 9.4 4.15833 9.4 2.87544 8.86C1.03958 8.1 0 6.68 0 4.82C0 1.82 2.67637 0 5.50758 0C8.53785 0 10.8824 1.84 10.9267 4.56C10.9488 4.62 10.8382 4.72 10.6834 4.72H7.91853C7.78582 4.72 7.67522 4.62 7.67522 4.56C7.63099 3.42 6.65776 2.88 5.50758 2.88C4.29104 2.88 3.2957 3.54 3.2957 4.82C3.2957 5.98 4.37952 6.58 5.50758 6.58C5.61817 6.58 6.85682 6.58 8.1176 7.12Z" fill="#FCFCFC"/>
<path d="M20.8461 8.04C20.8461 8.86 20.1162 9.54 19.1872 9.54C18.2582 9.54 17.5283 8.86 17.5283 8.04C17.5283 7.2 18.2582 6.52 19.1872 6.52C20.1162 6.52 20.8461 7.2 20.8461 8.04ZM27.7029 7.98C27.7029 11.98 24.8496 16 19.2093 16C13.4805 16 10.6714 11.98 10.6714 7.98C10.6714 4 13.4805 0 19.2093 0C24.8496 0 27.7029 4 27.7029 7.98ZM24.3851 8.04C24.3851 5.42 22.6377 2.82 19.2093 2.82C15.7366 2.82 14.0114 5.42 14.0114 8.04C14.0114 10.62 15.7366 13.2 19.2093 13.2C22.6377 13.2 24.3851 10.62 24.3851 8.04Z" fill="#FCFCFC"/>
<path d="M37.7585 13.06H41.1427V15.82C41.1427 15.9 41.0542 16 40.8994 16H38.0239C33.6223 16 27.6502 14.84 27.6502 8C27.6502 0.899998 33.6886 0 38.0239 0H40.8994C41.0542 0 41.1427 0.1 41.1427 0.18V6.46H37.7585V2.92C33.9098 2.74 31.0565 4.2 31.0565 8C31.0565 12.94 35.613 13.14 37.7585 13.06Z" fill="#FCFCFC"/>
<path d="M51.11 8.04C51.11 8.86 50.38 9.54 49.451 9.54C48.522 9.54 47.7921 8.86 47.7921 8.04C47.7921 7.2 48.522 6.52 49.451 6.52C50.38 6.52 51.11 7.2 51.11 8.04ZM57.9668 7.98C57.9668 11.98 55.1134 16 49.4732 16C43.7444 16 40.9353 11.98 40.9353 7.98C40.9353 4 43.7444 0 49.4732 0C55.1134 0 57.9668 4 57.9668 7.98ZM54.649 8.04C54.649 5.42 52.9016 2.82 49.4732 2.82C46.0005 2.82 44.2752 5.42 44.2752 8.04C44.2752 10.62 46.0005 13.2 49.4732 13.2C52.9016 13.2 54.649 10.62 54.649 8.04Z" fill="#FCFCFC"/>
<path d="M72.5567 0C72.7115 0 72.8 0.1 72.8 0.18V15.82C72.8 15.9 72.7115 16 72.5567 16H69.637C69.5928 16 69.4601 15.98 69.438 15.94L61.2982 5.4V12.16H57.9141V0.18C57.9141 0.1 58.0247 0 58.1353 0H61.077C61.1213 0 61.254 0.0199999 61.2761 0.0599994L69.438 10.6V0.18C69.438 0.1 69.5485 0 69.7034 0H72.5567Z" fill="#FCFCFC"/>
</svg>
